<svg id="Layer_1" data-name="Layer 1" xmlns="http://www.w3.org/2000/svg" viewBox="0 0 497.32 459.54"><defs><style>.cls-1{fill:#0033ad;}</style></defs><g id="Layer_2" data-name="Layer 2"><g id="Layer_1-2" data-name="Layer 1-2"><path class="cls-1" d="M142,246.58a33.5,33.5,0,0,0,31.56,35.28h2A33.49,33.49,0,1,0,142,246.58Z" transform="translate(-5.69 -18.47)"/><path class="cls-1" d="M17.11,238a10.83,10.83,0,1,0,10.21,11.41A10.74,10.74,0,0,0,17.11,238Z" transform="translate(-5.69 -18.47)"/><path class="cls-1" d="M139.91,52.17a10.85,10.85,0,0,0-9.81-19.36,10.85,10.85,0,0,0,9.81,19.36Z" transform="translate(-5.69 -18.47)"/><path class="cls-1" d="M173.86,111.45A16.7,16.7,0,1,0,151.45,104,16.72,16.72,0,0,0,173.86,111.45Z" transform="translate(-5.69 -18.47)"/><path class="cls-1" d="M59.55,152.16a13.79,13.79,0,1,0-4-19.09h0A13.71,13.71,0,0,0,59.55,152.16Z" transform="translate(-5.69 -18.47)"/><path class="cls-1" d="M79.84,232a16.74,16.74,0,1,0,15.78,17.63h0A16.74,16.74,0,0,0,79.84,232Z" transform="translate(-5.69 -18.47)"/><path class="cls-1" d="M61.4,344.32A13.82,13.82,0,1,0,80,350.42h0a13.87,13.87,0,0,0-18.57-6.1Z" transform="translate(-5.69 -18.47)"/><path class="cls-1" d="M126.38,197.38a19.64,19.64,0,1,0-5.7-27.18,19.52,19.52,0,0,0,5.7,27.18Z" transform="translate(-5.69 -18.47)"/><path class="cls-1" d="M332.6,110.13a16.76,16.76,0,1,0-4.78-23.21h0a16.57,16.57,0,0,0,4.78,23.21Z" transform="translate(-5.69 -18.47)"/><path class="cls-1" d="M366.81,51.11A10.83,10.83,0,1,0,363.63,36a11.15,11.15,0,0,0,3.18,15.11Z" transform="translate(-5.69 -18.47)"/><path class="cls-1" d="M335.12,214.62a33.47,33.47,0,0,0-3.72,66.84h1.86a33.45,33.45,0,0,0,1.86-66.84Z" transform="translate(-5.69 -18.47)"/><path class="cls-1" d="M184.87,195a33.51,33.51,0,1,0,14.85-45.09A33.54,33.54,0,0,0,184.87,195Z" transform="translate(-5.69 -18.47)"/><path class="cls-1" d="M447.31,152.16a13.79,13.79,0,1,0-18.7-6.1,14,14,0,0,0,18.7,6.1Z" transform="translate(-5.69 -18.47)"/><path class="cls-1" d="M362.43,162.77a19.66,19.66,0,1,0,26.39,8.76A19.66,19.66,0,0,0,362.43,162.77Z" transform="translate(-5.69 -18.47)"/><path class="cls-1" d="M253,46.07a13.81,13.81,0,1,0-13-14.72,14,14,0,0,0,13,14.72Z" transform="translate(-5.69 -18.47)"/><path class="cls-1" d="M252.9,132.67A19.65,19.65,0,1,0,234.33,112a19.52,19.52,0,0,0,18.57,20.69Z" transform="translate(-5.69 -18.47)"/><path class="cls-1" d="M146.27,333.71A19.66,19.66,0,1,0,119.88,325,19.67,19.67,0,0,0,146.27,333.71Z" transform="translate(-5.69 -18.47)"/><path class="cls-1" d="M265.63,161.45a33.47,33.47,0,1,0,28-15.12A33.38,33.38,0,0,0,265.63,161.45Z" transform="translate(-5.69 -18.47)"/><path class="cls-1" d="M323.84,301.49A33.48,33.48,0,1,0,309,346.44h0a33.33,33.33,0,0,0,15-44.69C324,301.62,324,301.62,323.84,301.49Z" transform="translate(-5.69 -18.47)"/><path class="cls-1" d="M382.33,299.1a19.64,19.64,0,1,0,5.7,27.18,19.52,19.52,0,0,0-5.7-27.18Z" transform="translate(-5.69 -18.47)"/><path class="cls-1" d="M446.51,248.84a16.74,16.74,0,1,0-17.64,15.78h0A16.84,16.84,0,0,0,446.51,248.84Z" transform="translate(-5.69 -18.47)"/><path class="cls-1" d="M492.79,236.9A10.83,10.83,0,1,0,503,248.31,10.91,10.91,0,0,0,492.79,236.9Z" transform="translate(-5.69 -18.47)"/><path class="cls-1" d="M449.16,344.32a13.79,13.79,0,1,0,4,19.1,13.86,13.86,0,0,0-4-19.1Z" transform="translate(-5.69 -18.47)"/><path class="cls-1" d="M141.77,445.37a10.82,10.82,0,1,0,3,15h0A10.66,10.66,0,0,0,141.77,445.37Z" transform="translate(-5.69 -18.47)"/><path class="cls-1" d="M368.8,444.31a10.85,10.85,0,1,0,9.81,19.36,10.85,10.85,0,0,0-9.81-19.36Z" transform="translate(-5.69 -18.47)"/><path class="cls-1" d="M243.08,335a33.53,33.53,0,1,0-46.41,9.68A33.65,33.65,0,0,0,243.08,335Z" transform="translate(-5.69 -18.47)"/><path class="cls-1" d="M176.11,386.36a16.75,16.75,0,1,0,4.78,23.2h0A16.58,16.58,0,0,0,176.11,386.36Z" transform="translate(-5.69 -18.47)"/><path class="cls-1" d="M254.22,450.41a13.81,13.81,0,1,0,13,14.72,14,14,0,0,0-13-14.72Z" transform="translate(-5.69 -18.47)"/><path class="cls-1" d="M254.35,363.81a19.66,19.66,0,1,0,18.57,20.69,19.53,19.53,0,0,0-18.57-20.69Z" transform="translate(-5.69 -18.47)"/><path class="cls-1" d="M334.85,385a16.76,16.76,0,1,0,22.68,7.43A16.93,16.93,0,0,0,334.85,385Z" transform="translate(-5.69 -18.47)"/></g></g></svg>