<?xml version="1.0" encoding="UTF-8" standalone="no"?>
<svg xmlns:svg="http://www.w3.org/2000/svg" xmlns="http://www.w3.org/2000/svg" width="150" height="20" viewBox="0 0 39.687499 5.2916668">
	<g style="fill:#181818;stroke:none">
    <g transform="matrix(1.0094213,0,0,1.0204082,-0.05341521,-0.0539966)">
      <rect width="0.95249993" height="0.95249993" x="0.052916665" y="4.2862496"/>
      <rect width="0.95249993" height="0.95249993" x="1.1112499" y="2.69875"/>
      <rect width="0.95249993" height="0.95249993" x="2.1695833" y="2.69875"/>
      <rect width="0.95249993" height="0.95249993" x="3.2279167" y="2.1695836"/>
      <rect width="0.95249993" height="0.95249993" x="3.2279167" y="0.052916665"/>
      <rect width="0.95249993" height="0.95249993" x="3.2279167" y="1.1112499"/>
      <rect width="0.95249993" height="0.95249993" x="2.1695833" y="0.05291678"/>
      <rect width="0.95249993" height="0.95249993" x="1.1112499" y="0.052916721"/>
      <rect width="0.95249993" height="0.95249993" x="0.052916665" y="0.052916721"/>
      <rect width="0.95249993" height="0.95249993" x="0.052916665" y="1.11125"/>
      <rect width="0.95249993" height="0.95249993" x="0.052916665" y="2.1695836"/>
      <rect width="0.95249993" height="0.95249993" x="0.052916665" y="3.2279167"/>
      <rect width="0.95249993" height="0.95249993" x="5.0799999" y="0.05291678"/>
      <rect width="0.95249993" height="0.95249993" x="6.1383333" y="0.05291678"/>
      <rect width="0.95249993" height="0.95249993" x="7.1966667" y="0.052916721"/>
      <rect width="0.95249993" height="0.95249993" x="8.2550001" y="0.052916721"/>
      <rect width="0.95249993" height="0.95249993" x="6.6675" y="1.11125"/>
      <rect width="0.95249993" height="0.95249993" x="6.6675" y="2.1695836"/>
      <rect width="0.95249993" height="0.95249993" x="6.6675" y="3.2279167"/>
      <rect width="0.95249993" height="0.95249993" x="5.0799999" y="4.2862496"/>
      <rect width="0.95249993" height="0.95249993" x="6.1383333" y="4.2862496"/>
      <rect width="0.95249993" height="0.95249993" x="7.1966667" y="4.2862496"/>
      <rect width="0.95249993" height="0.95249993" x="8.2550001" y="4.2862496"/>
      <rect width="0.95249993" height="0.95249993" x="10.107083" y="3.7570834"/>
      <rect width="0.95249993" height="0.95249993" x="11.165417" y="4.2862501"/>
      <rect width="0.95249993" height="0.95249993" x="12.22375" y="4.2862496"/>
      <rect width="0.95249993" height="0.95249993" x="13.282084" y="3.7570834"/>
      <rect width="0.95249993" height="0.95249993" x="10.107083" y="2.6987503"/>
      <rect width="0.95249993" height="0.95249993" x="10.107083" y="1.6404166"/>
      <rect width="0.95249993" height="0.95249993" x="10.107083" y="0.58208334"/>
      <rect width="0.95249993" height="0.95249993" x="11.165417" y="0.052916721"/>
      <rect width="0.95249993" height="0.95249993" x="12.22375" y="0.05291678"/>
      <rect width="0.95249993" height="0.95249993" x="13.282084" y="0.5820834"/>
      <rect width="0.95249993" height="0.95249993" x="15.134167" y="0.58208334"/>
      <rect width="0.95249993" height="0.95249993" x="16.192501" y="0.052916665"/>
      <rect width="0.95249993" height="0.95249993" x="17.250834" y="0.052916721"/>
      <rect width="0.95249993" height="0.95249993" x="18.309168" y="0.58208334"/>
      <rect width="0.95249993" height="0.95249993" x="18.309168" y="1.6404166"/>
      <rect width="0.95249993" height="0.95249993" x="18.309168" y="2.6987503"/>
      <rect width="0.95249993" height="0.95249993" x="18.309168" y="3.7570834"/>
      <rect width="0.95249993" height="0.95249993" x="17.250834" y="4.2862496"/>
      <rect width="0.95249993" height="0.95249993" x="16.192501" y="4.2862496"/>
      <rect width="0.95249993" height="0.95249993" x="15.134167" y="3.7570837"/>
      <rect width="0.95249993" height="0.95249993" x="15.134167" y="2.69875"/>
      <rect width="0.95249993" height="0.95249993" x="15.134167" y="1.6404166"/>
      <rect width="0.95249993" height="0.95249993" x="25.188334" y="0.052916721"/>
      <rect width="0.95249993" height="0.95249993" x="25.188334" y="1.11125"/>
      <rect width="0.95249993" height="0.95249993" x="25.188334" y="2.1695833"/>
      <rect width="0.95249993" height="0.95249993" x="25.188334" y="3.2279167"/>
      <rect width="0.95249993" height="0.95249993" x="25.188334" y="4.2862496"/>
      <rect width="0.95249993" height="0.95249993" x="26.246668" y="3.7570834"/>
      <rect width="0.95249993" height="0.95249993" x="26.775835" y="2.69875"/>
      <rect width="0.95249993" height="0.95249993" x="26.775835" y="1.6404166"/>
      <rect width="0.95249993" height="0.95249993" x="27.305" y="3.7570834"/>
      <rect width="0.95249993" height="0.95249993" x="28.363335" y="4.2862496"/>
      <rect width="0.95249993" height="0.95249993" x="28.363335" y="3.227917"/>
      <rect width="0.95249993" height="0.95249993" x="28.363335" y="2.1695833"/>
      <rect width="0.95249993" height="0.95249993" x="28.363335" y="1.11125"/>
      <rect width="0.95249993" height="0.95249993" x="28.363335" y="0.052916665"/>
      <rect width="0.95249993" height="0.95249993" x="30.215418" y="4.2862501"/>
      <rect width="0.95249993" height="0.95249993" x="30.215418" y="3.227917"/>
      <rect width="0.95249993" height="0.95249993" x="30.215418" y="2.1695833"/>
      <rect width="0.95249993" height="0.95249993" x="30.215418" y="1.1112502"/>
      <rect width="0.95249993" height="0.95249993" x="31.27375" y="0.05291678"/>
      <rect width="0.95249993" height="0.95249993" x="32.332085" y="0.052916721"/>
      <rect width="0.95249993" height="0.95249993" x="33.390419" y="1.11125"/>
      <rect width="0.95249993" height="0.95249993" x="33.390419" y="2.1695833"/>
      <rect width="0.95249993" height="0.95249993" x="31.27375" y="2.6987503"/>
      <rect width="0.95249993" height="0.95249993" x="32.332085" y="2.69875"/>
      <rect width="0.95249993" height="0.95249993" x="33.390419" y="3.227917"/>
      <rect width="0.95249993" height="0.95249993" x="33.390419" y="4.2862496"/>
      <rect width="0.95249993" height="0.95249993" x="35.2425" y="4.2862501"/>
      <rect width="0.95249993" height="0.95249993" x="35.2425" y="3.2279167"/>
      <rect width="0.95249993" height="0.95249993" x="36.300835" y="2.69875"/>
      <rect width="0.95249993" height="0.95249993" x="37.359169" y="2.69875"/>
      <rect width="0.95249993" height="0.95249993" x="38.4175" y="1.1112499"/>
      <rect width="0.95249993" height="0.95249993" x="38.4175" y="0.052916665"/>
      <rect width="0.95249993" height="0.95249993" x="37.359165" y="0.052916721"/>
      <rect width="0.95249993" height="0.95249993" x="38.4175" y="2.1695836"/>
      <rect width="0.95249993" height="0.95249993" x="36.300835" y="0.052916721"/>
      <rect width="0.95249993" height="0.95249993" x="35.2425" y="0.05291675"/>
      <rect width="0.95249993" height="0.95249993" x="35.2425" y="1.1112499"/>
      <rect width="0.95249993" height="0.95249993" x="35.2425" y="2.1695836"/>
      <rect width="0.95249993" height="0.95249993" x="20.161251" y="1.6404166"/>
      <rect width="0.95249993" height="0.95249993" x="21.219585" y="0.052916776"/>
      <rect width="0.95249993" height="0.95249993" x="22.277918" y="0.052916776"/>
      <rect width="0.95249993" height="0.95249993" x="23.33625" y="0.58208334"/>
      <rect width="0.95249993" height="0.95249993" x="21.219585" y="2.1695836"/>
      <rect width="0.95249993" height="0.95249993" x="22.277918" y="2.1695833"/>
      <rect width="0.95249993" height="0.95249993" x="23.33625" y="2.69875"/>
      <rect width="0.95249993" height="0.95249993" x="23.33625" y="3.7570834"/>
      <rect width="0.95249993" height="0.95249993" x="22.277918" y="4.2862496"/>
      <rect width="0.95249993" height="0.95249993" x="21.219584" y="4.2862496"/>
      <rect width="0.95249993" height="0.95249993" x="20.161251" y="3.7570834"/>
      <rect width="0.95249993" height="0.95249993" x="20.161251" y="0.58208346"/>
    </g>
  </g>
</svg>
